<svg width="40" height="40" viewBox="0 0 40 40" fill="none" xmlns="http://www.w3.org/2000/svg">
<g clip-path="url(#clip0_1_280)">
<path d="M38.777 17.732C37.906 19.29 38.421 21.137 38.284 23.623C38.203 25.084 37.599 26.79 36.452 30.251C34.993 34.655 34.25 35.42 33.697 35.797C32.854 36.371 32.072 36.3 31.591 36.248C28.029 35.863 26.665 30.378 24.257 31.131C23.332 31.42 22.683 32.313 22.328 32.893C21.769 33.29 21.338 33.702 20.802 33.733C20.794 33.733 20.451 33.733 20.098 33.565C18.806 32.951 17.095 29.811 17.587 28.673C17.91 27.925 19.14 28.183 21.6 28.698C22.124 28.808 22.18 28.857 22.288 28.884C22.467 28.929 22.602 28.918 22.617 28.917C22.955 28.903 27.227 31.809 30.322 32.145C30.322 32.145 32.52 32.383 33.593 30.974C33.673 30.869 33.833 30.643 33.938 30.489C34.44 29.753 34.829 29.175 35.209 28.239C35.422 27.716 35.435 27.564 36.035 25.403C36.608 23.338 36.643 23.296 36.79 22.651C36.963 21.887 37.124 20.952 37.274 19.577C37.642 16.206 38.043 11.223 36.284 8.821C36.095 8.563 35.224 7.438 33.007 7.415C29.751 7.382 27.486 9.768 23.449 13.901C17.335 20.161 17.433 19.906 13.509 24.069C6.57798 31.423 11.289 26.895 6.07598 32.96C4.79298 34.453 4.03898 35.271 3.49098 36.931C3.07498 38.189 3.03898 39.139 2.41298 39.667C1.67298 40.29 0.470982 40.02 0.107982 39.049C-0.186018 38.262 0.159982 37.251 0.609982 35.938C0.760982 35.497 1.19998 34.238 1.87998 33.224C4.36998 29.516 11.157 24.577 11.157 24.577C16.609 20.61 22.12 14.837 23.744 11.341C24.246 10.26 24.721 8.656 26.004 7.48C26.668 6.872 27.343 6.566 27.821 5.428C27.923 5.185 28.422 3.997 28.194 3.099C28.08 2.649 27.638 1.692 23.263 1.642C21.053 1.617 18.179 1.645 15.627 2.975C14.656 3.481 13.673 4.205 12.617 5.251C12.23 5.634 12.022 5.784 11.906 6.052C11.735 6.443 11.624 7.065 11.741 7.572C12.048 8.892 13.703 8.499 13.905 9.526C14.058 10.303 13.283 11.392 12.637 11.946C11.765 12.692 10.937 12.625 9.88898 12.577C7.13298 12.451 5.75498 12.389 5.37998 12.682C4.12798 13.663 3.79998 16.4 3.19598 21.834C2.67498 26.519 2.76898 29.092 2.13898 29.303C1.56398 29.495 0.749982 27.599 0.447982 26.568C-1.41802 20.176 5.47198 9.628 7.20198 7.064C8.43498 5.433 9.53498 4.493 11.667 3.223C14.512 1.528 19.245 1.08 24.801 0.367C26.086 0.202 27.883 -0.0220004 30.26 0.00199963C30.26 0.00199963 32.403 0.0239996 35.268 0.796C36.947 1.248 37.641 1.631 38.193 2.517C38.86 3.587 39.047 4.951 39.212 6.157C39.462 7.983 39.274 8.2 39.442 10.438C39.704 13.918 40.342 15.136 39.762 16.471C39.448 17.195 39.202 16.971 38.776 17.733L38.777 17.732Z" fill="#F2EEE9"/>
</g>
<defs>
<clipPath id="clip0_1_280">
<rect width="40" height="40" fill="white"/>
</clipPath>
</defs>
</svg>
